# xmcd
#
# Track frame offsets: 
#        150
#        18077
#        40163
#        61807
#        87347
#        108349
#        123806
#        140835
#        157279
#        173310
#        189092
#        207067
#        222048
#        238796
#        254920
#
# Disc length: 3659 seconds
#
# Revision: 0
# Processed by: cddbd v1.5.2PL0 Copyright (c) Steve Scherf et al.
# Submitted via: ExactAudioCopy v0.99pb1
#
DISCID=c80e490f
DTITLE=Rocky Athas' - Lightning Strikes Twice
DYEAR=2007
DGENRE=Blues
TTITLE0=Up To The Sky
TTITLE1=Where Do We Go From Here (Ratta Mae)
TTITLE2=To My Freid (SRV)
TTITLE3=Survival
TTITLE4=Vows Were Made
TTITLE5=Sanity
TTITLE6=Ain't it a Shame
TTITLE7=Don't Feel Free
TTITLE8=Pack it Up
TTITLE9=Thinkin' 'Boout You
TTITLE10=Lightning Strikes Again
TTITLE11=Home Again
TTITLE12=Big D Stuff
TTITLE13=I Will Love Again
TTITLE14=The Night Is Over
EXTD=
EXTT0=
EXTT1=
EXTT2=
EXTT3=
EXTT4=
EXTT5=
EXTT6=
EXTT7=
EXTT8=
EXTT9=
EXTT10=
EXTT11=
EXTT12=
EXTT13=
EXTT14=
PLAYORDER=
